<?xml version="1.0" encoding="utf-8"?>
<!-- Generator: Adobe Illustrator 28.0.0, SVG Export Plug-In . SVG Version: 6.00 Build 0)  -->
<svg version="1.1" id="Слой_1" xmlns="http://www.w3.org/2000/svg" xmlns:xlink="http://www.w3.org/1999/xlink" x="0px" y="0px"
	 viewBox="0 0 800 800" style="enable-background:new 0 0 800 800;" xml:space="preserve">
<style type="text/css">
	.st0{display:none;fill:#2AFF9F;stroke:#000000;stroke-width:6;stroke-miterlimit:10;}
</style>
<ellipse class="st0" cx="399.2" cy="397.5" rx="375.8" ry="372.5"/>
<g id="Outline">
	<g id="Outline-2">
		<path d="M490.2,294.3c19.8,0,35.9,16.1,35.9,35.9c0,6.9,5.6,12.5,12.5,12.5c6.9,0,12.5-5.6,12.5-12.5
			c-0.1-28.1-19.4-52.6-46.8-59.1v-25.6c0-6.9-5.6-12.5-12.5-12.5c-6.9,0-12.5,5.6-12.5,12.5v24.9c-33.1,6-55,37.6-49,70.7
			c5.2,29,30.5,50,59.9,50c0.6-0.1,1.1-0.2,1.6-0.3c0.5,0.1,1.1,0.3,1.6,0.3c25.9,0,47,21,47,46.9c0,25.9-21,47-47,47
			c-25.9,0-47-21-47-47c0-6.9-5.6-12.5-12.5-12.5s-12.5,5.6-12.5,12.5c0.1,35.8,26.5,66.2,62,71.2v28.3c0,6.9,5.6,12.5,12.5,12.5
			c6.9,0,12.5-5.6,12.5-12.5v-29.2c38.9-8.3,63.7-46.5,55.4-85.3c-7.1-33.2-36.4-57-70.4-57c-0.6,0.1-1.1,0.2-1.6,0.3
			c-0.5-0.2-1.1-0.3-1.6-0.3c-19.8,0-35.9-16.1-35.9-35.9C454.3,310.3,470.4,294.3,490.2,294.3L490.2,294.3z"/>
		<path d="M373,445l22.5,60.4c2.4,6.5,9.6,9.8,16.1,7.3c6.5-2.4,9.8-9.6,7.3-16.1l-80.1-215.4c-2.4-6.5-9.6-9.8-16.1-7.4
			c-3.4,1.3-6.1,4-7.4,7.4l-80,215.5c-2.4,6.5,0.9,13.7,7.3,16.1c6.5,2.4,13.7-0.9,16.1-7.3l22.4-60.5H373z M327.1,321.4l36.6,98.5
			h-73.2L327.1,321.4z"/>
		<path d="M400,25C192.9,25,25,192.9,25,400s167.9,375,375,375s375-167.9,375-375C774.8,193,607,25.2,400,25z M400,750
			C206.7,750,50,593.3,50,400S206.7,50,400,50s350,156.7,350,350C749.8,593.2,593.2,749.8,400,750z"/>
		<path d="M620.7,209.9c0.1-22-17.7-39.8-39.7-39.9c-22-0.1-39.8,17.7-39.9,39.7c-0.1,22,17.7,39.8,39.7,39.9c5.5,0,11-1.1,16-3.3
			c85,108.8,65.6,265.8-43.2,350.8c-77.4,60.5-183.1,70-270,24.3c-6.1-3.2-13.7-0.7-16.8,5.4c-3.1,6.1-0.8,13.5,5.2,16.7
			c134.3,70.8,300.5,19.4,371.3-114.9c50.8-96.4,39.9-213.8-27.9-299.2C618.8,223.5,620.6,216.8,620.7,209.9z M566.4,209.9
			c0-8.1,6.6-14.6,14.7-14.6c8.1,0,14.6,6.6,14.6,14.7s-6.6,14.6-14.7,14.6C572.9,224.6,566.4,218,566.4,209.9L566.4,209.9z"/>
		<path d="M209.9,550.4c-2.9,0-5.8,0.4-8.6,1C167.9,508,149.8,454.8,150,400c0.2-138,112-249.8,250-250
			c36.6-0.1,72.7,7.9,105.8,23.4c6.3,2.9,13.7,0.2,16.6-6c2.9-6.3,0.2-13.7-6-16.6C480,133.7,440.2,124.9,400,125
			c-151.8,0.2-274.8,123.2-275,275c-0.2,59.4,19.1,117.1,54.9,164.5c-14,16.7-11.9,41.6,4.8,55.6s41.6,11.9,55.6-4.8
			c14-16.7,11.9-41.6-4.8-55.6C228.3,553.7,219.2,550.4,209.9,550.4L209.9,550.4z M209.9,604.7c-8.1,0-14.7-6.6-14.7-14.7
			c0-8.1,6.6-14.7,14.7-14.7c8.1,0,14.7,6.6,14.7,14.7c0,0,0,0,0,0C224.6,598.2,218,604.7,209.9,604.7
			C209.9,604.7,209.9,604.7,209.9,604.7z"/>
	</g>
</g>
</svg>
