<?xml version="1.0" encoding="utf-8"?>
<!-- Generator: Adobe Illustrator 28.0.0, SVG Export Plug-In . SVG Version: 6.00 Build 0)  -->
<svg version="1.1" id="Слой_1" xmlns="http://www.w3.org/2000/svg" xmlns:xlink="http://www.w3.org/1999/xlink" x="0px" y="0px"
	 viewBox="0 0 800 800" style="enable-background:new 0 0 800 800;" xml:space="preserve">
<style type="text/css">
	.st0{fill-rule:evenodd;clip-rule:evenodd;fill:#F7931A;stroke:#000000;stroke-width:8;stroke-miterlimit:10;}
	.st1{fill:#FFFFFF;stroke:#000000;stroke-width:8;stroke-miterlimit:10;}
</style>
<g>
	<circle class="st0" cx="399" cy="401" r="393"/>
	<path class="st1" d="M575.6,352.4c7.7-51.5-31.5-79.2-85.1-97.6l17.4-69.8l-42.4-10.6l-16.9,67.9c-11.2-2.8-22.6-5.4-34-8
		l17.1-68.4l-42.4-10.6l-17.4,69.7c-9.2-2.1-18.3-4.2-27.1-6.4l0-0.2l-58.6-14.6l-11.3,45.3c0,0,31.5,7.2,30.9,7.7
		c17.2,4.3,20.3,15.7,19.8,24.7l-19.8,79.5c1.2,0.3,2.7,0.7,4.4,1.4l-4.5-1.1l-27.8,111.3c-2.1,5.2-7.4,13-19.5,10.1
		c0.4,0.6-30.9-7.7-30.9-7.7l-21.1,48.6l55.3,13.8c10.3,2.6,20.3,5.3,30.2,7.8l-17.6,70.5l42.4,10.6l17.4-69.8
		c11.6,3.1,22.8,6,33.8,8.8l-17.3,69.5l42.4,10.6l17.6-70.4c72.4,13.7,126.8,8.2,149.8-57.3c18.5-52.7-0.9-83.1-39-103
		C549.1,408.3,570,390.1,575.6,352.4L575.6,352.4z M478.6,488.4c-13.1,52.7-101.9,24.2-130.7,17.1l23.3-93.5
		C400,419.2,492.3,433.4,478.6,488.4z M491.7,351.6c-12,48-85.8,23.6-109.8,17.6l21.1-84.7C427,290.4,504.2,301.6,491.7,351.6
		L491.7,351.6z"/>
</g>
</svg>
