<?xml version="1.0" encoding="utf-8"?>
<!-- Generator: Adobe Illustrator 28.0.0, SVG Export Plug-In . SVG Version: 6.00 Build 0)  -->
<svg version="1.1" id="Layer_1" xmlns="http://www.w3.org/2000/svg" xmlns:xlink="http://www.w3.org/1999/xlink" x="0px" y="0px"
	 viewBox="0 0 800 800" style="enable-background:new 0 0 800 800;" xml:space="preserve">
<style type="text/css">
	.st0{fill:#00ADC9;stroke:#000000;stroke-width:7;stroke-miterlimit:10;}
</style>
<circle class="st0" cx="399.5" cy="399.5" r="390.5"/>
<g>
	<path d="M564.4,394.6l-19.5-6.7V194.7c39.4,7.8,69.4,45.6,69.4,90.9h30.3c0-63.6-43.5-116.3-99.7-124.5V127h-30.3v34.2
		C458.5,169.3,415,222,415,285.7c0,60.2,27.7,101.6,80.2,119.7l19.5,6.7v193.2c-39.4-7.8-69.4-45.6-69.4-90.9H415
		c0,63.6,43.5,116.3,99.7,124.5V673h30.3v-34.2c56.2-8.1,99.7-60.8,99.7-124.5C644.6,454.1,616.9,412.7,564.4,394.6z M504.3,373.8
		c-40.3-13.9-59.1-41.9-59.1-88.2c0-45.3,30-83.1,69.4-90.9v182.7L504.3,373.8z M544.9,605.3V422.6l10.4,3.6
		c40.3,13.9,59,41.9,59,88.2C614.3,559.7,584.3,597.5,544.9,605.3z"/>
	<path d="M270.3,193.2c46.7,0,84.7,41.5,84.7,92.6h30.3c0-69.3-51.6-125.7-114.9-125.7c-63.4,0-114.9,56.4-114.9,125.7v228.5
		c0,69.3,51.6,125.7,114.9,125.7c63.4,0,114.9-56.4,114.9-125.7H355c0,51-38,92.6-84.7,92.6c-46.7,0-84.7-41.5-84.7-92.6V285.8
		C185.7,234.7,223.6,193.2,270.3,193.2z"/>
</g>
</svg>
