<?xml version="1.0" encoding="utf-8"?>
<!-- Generator: Adobe Illustrator 28.0.0, SVG Export Plug-In . SVG Version: 6.00 Build 0)  -->
<svg version="1.1" id="Слой_1" xmlns="http://www.w3.org/2000/svg" xmlns:xlink="http://www.w3.org/1999/xlink" x="0px" y="0px"
	 viewBox="0 0 800 800" style="enable-background:new 0 0 800 800;" xml:space="preserve">
<style type="text/css">
	.st0{fill:#2AFFA5;stroke:#000000;stroke-width:12;stroke-miterlimit:10;}
	.st1{fill:#0F0F0F;}
</style>
<circle class="st0" cx="401" cy="399" r="390"/>
<path class="st1" d="M226.7,112c-11-14.7-31.9-17.7-46.7-6.7c-14.7,11-17.7,31.9-6.7,46.7l185,246.7h-125
	c-18.4,0-33.3,14.9-33.3,33.3c0,18.4,14.9,33.3,33.3,33.3h133.3V732c0,18.4,14.9,33.3,33.3,33.3c18.4,0,33.3-14.9,33.3-33.3V465.3
	h133.3c18.4,0,33.3-14.9,33.3-33.3c0-18.4-14.9-33.3-33.3-33.3h-125l185-246.7c11-14.7,8.1-35.6-6.7-46.7
	c-14.7-11-35.6-8.1-46.7,6.7L400,343.1L226.7,112z"/>
</svg>
