<?xml version="1.0" encoding="utf-8"?>
<!-- Generator: Adobe Illustrator 28.0.0, SVG Export Plug-In . SVG Version: 6.00 Build 0)  -->
<svg version="1.1" id="Layer_1" xmlns="http://www.w3.org/2000/svg" xmlns:xlink="http://www.w3.org/1999/xlink" x="0px" y="0px"
	 viewBox="0 0 800 800" style="enable-background:new 0 0 800 800;" xml:space="preserve">
<style type="text/css">
	.st0{fill:#FFBB94;stroke:#000000;stroke-width:8;stroke-miterlimit:10;}
</style>
<ellipse class="st0" cx="401" cy="399" rx="388" ry="392"/>
<g>
	<g>
		<g>
			<path d="M379.7,426.1h45.7c23.7,0,40.2,21.1,40.2,50.1v99.4h51.1v-99.4c0-63-39.7-112.4-91.3-112.4h-11.9l113.3-154.4h-68.6
				l-78.5,106.1V209.4h-51.1v366.2h27.3h23.9L379.7,426.1L379.7,426.1z"/>
		</g>
		<g>
			<polygon points="306.1,209.4 302.7,209.4 255,209.4 255,361.4 167.1,361.4 167.1,209.4 116,209.4 116,575.6 167.1,575.6 
				167.1,423.6 255,423.6 255,575.6 302.7,575.6 306.1,575.6 			"/>
		</g>
		<g>
			<path d="M721.6,472.5c0-50.3-27-93.1-65.8-106.4v-89.6c10.2,8.7,15.1,22,15.1,37.5H722c0-51.5-27.4-93.3-66.3-106.3v-28.3h-51.1
				v28.8c-36.8,13.7-64.2,55.8-64.2,105.5c0,49.8,27.4,91.9,64.2,105.6v89c-8.2-8.9-12.6-21.6-12.6-35h-51.1
				c0,48.9,26.9,91.2,63.7,105V603h51.1v-24.1C694.6,565.5,721.6,522.8,721.6,472.5z M591.6,313.9c0-14.2,4.9-27,13.1-35.8v71.6
				C596.5,340.9,591.6,328.1,591.6,313.9z M655.8,510v-74.6c10.2,8.9,14.7,22.3,14.7,37.2C670.4,487.5,666,501,655.8,510z"/>
		</g>
	</g>
</g>
</svg>
